<?xml version="1.0" encoding="UTF-8" ?>
<!DOCTYPE svg PUBLIC "-//W3C//DTD SVG 1.1//EN" "http://www.w3.org/Graphics/SVG/1.1/DTD/svg11.dtd">
<svg width="895pt" height="106pt" viewBox="0 0 895 106" version="1.1" xmlns="http://www.w3.org/2000/svg">
<g id="#000000ff">
<path fill="#000000" opacity="1.00" d=" M 0.00 0.00 L 895.00 0.00 L 895.00 106.00 L 0.00 106.00 L 0.00 0.00 M 195.52 15.67 C 186.04 16.67 176.95 21.64 171.41 29.46 C 160.49 43.93 163.42 66.89 178.17 77.68 C 191.63 88.18 212.71 87.09 224.70 74.80 C 238.21 61.79 238.04 37.52 224.14 24.85 C 216.70 17.58 205.74 14.40 195.52 15.67 M 361.39 19.37 C 352.43 23.51 346.30 32.46 344.62 42.07 C 342.69 51.95 344.14 62.77 349.79 71.23 C 354.33 78.06 361.93 82.55 369.97 83.89 C 379.10 85.18 389.05 84.27 396.80 78.86 C 403.86 74.13 408.20 66.24 409.77 58.02 C 402.41 57.98 395.06 58.01 387.71 57.99 C 385.26 62.58 380.22 65.94 374.88 64.91 C 369.16 64.21 365.71 58.44 365.36 53.10 C 364.67 47.16 365.93 39.87 371.61 36.70 C 377.48 33.74 384.99 36.66 387.63 42.61 C 395.02 42.65 402.41 42.64 409.80 42.61 C 408.35 35.70 405.31 28.88 399.94 24.14 C 389.62 14.98 373.71 13.77 361.39 19.37 M 581.23 16.26 C 574.39 17.60 567.90 20.99 563.09 26.06 C 553.03 36.32 550.89 52.99 557.21 65.76 C 562.02 75.61 571.91 82.75 582.78 84.25 C 595.42 86.34 609.16 81.09 616.54 70.48 C 626.62 56.51 624.53 34.94 611.14 23.80 C 603.08 16.70 591.65 14.32 581.23 16.26 M 699.19 16.26 C 693.06 17.47 687.23 20.33 682.61 24.56 C 669.47 36.26 667.97 58.26 679.08 71.82 C 687.61 82.82 703.03 87.15 716.26 83.33 C 724.22 81.01 731.42 75.82 735.73 68.68 C 744.46 54.73 741.96 34.48 729.15 23.81 C 721.08 16.70 709.63 14.32 699.19 16.26 M 753.29 25.34 C 742.96 35.79 741.36 52.77 746.97 65.93 C 751.01 75.69 760.61 82.45 770.95 83.92 C 780.34 85.14 790.70 84.37 798.48 78.42 C 802.86 75.02 807.15 71.00 809.55 65.94 C 809.85 59.01 809.55 52.06 809.66 45.12 C 798.22 45.11 786.78 45.11 775.34 45.12 C 775.34 50.08 775.34 55.03 775.33 59.99 C 781.01 60.04 786.68 59.93 792.36 60.07 C 790.00 62.49 787.34 64.89 783.91 65.58 C 777.58 67.00 769.30 65.15 766.64 58.55 C 764.67 53.30 764.55 47.07 766.93 41.94 C 770.34 34.33 782.34 33.26 787.29 39.83 C 794.64 39.93 802.00 39.91 809.36 39.83 C 808.46 35.51 807.14 31.15 804.44 27.57 C 799.97 21.48 792.81 17.81 785.43 16.67 C 774.22 14.70 761.53 17.02 753.29 25.34 M 14.75 16.68 C 14.71 39.09 14.78 61.50 14.72 83.91 C 22.02 84.10 29.32 83.96 36.62 83.99 C 36.60 61.54 36.63 39.09 36.60 16.64 C 29.32 16.65 22.03 16.59 14.75 16.68 M 42.75 16.68 C 42.71 39.09 42.78 61.50 42.72 83.91 C 50.01 84.10 57.31 83.96 64.61 84.00 C 64.57 72.79 64.70 61.59 64.54 50.38 C 71.13 61.89 79.19 72.51 86.09 83.84 C 93.48 84.15 100.89 84.01 108.28 83.91 C 108.22 61.50 108.28 39.09 108.25 16.68 C 100.96 16.59 93.68 16.65 86.39 16.64 C 86.43 28.06 86.29 39.47 86.46 50.88 C 85.82 49.47 85.09 48.09 84.23 46.80 C 77.60 36.77 71.19 26.60 64.52 16.60 C 57.27 16.70 50.01 16.57 42.75 16.68 M 114.38 83.99 C 121.68 83.96 128.98 84.09 136.28 83.91 C 136.23 75.54 136.28 67.17 136.25 58.80 C 142.59 58.82 148.93 58.88 155.27 58.75 C 155.24 53.39 155.27 48.04 155.25 42.68 C 148.91 42.61 142.56 42.60 136.22 42.69 C 136.27 39.66 136.26 36.63 136.25 33.60 C 145.03 33.68 153.82 33.62 162.61 33.63 C 162.61 27.97 162.62 22.30 162.60 16.64 C 146.53 16.63 130.47 16.63 114.40 16.64 C 114.37 39.09 114.40 61.54 114.38 83.99 M 235.48 16.96 C 235.53 22.43 235.49 27.89 235.52 33.35 C 241.44 33.40 247.36 33.23 253.28 33.47 C 253.16 50.31 253.27 67.15 253.23 83.99 C 260.22 83.99 267.22 84.05 274.22 83.95 C 274.21 67.09 274.21 50.22 274.22 33.35 C 280.10 33.35 285.99 33.36 291.87 33.35 C 291.89 27.87 291.89 22.38 291.87 16.90 C 273.08 16.94 254.28 16.80 235.48 16.96 M 295.23 16.90 C 295.23 39.26 295.24 61.63 295.23 83.99 C 310.22 83.98 325.22 84.06 340.22 83.95 C 340.21 78.35 340.21 72.75 340.22 67.15 C 332.25 67.06 324.29 67.14 316.32 67.10 C 316.32 63.94 316.32 60.78 316.34 57.62 C 323.32 57.58 330.30 57.76 337.27 57.51 C 337.17 52.31 337.23 47.11 337.21 41.91 C 330.24 41.88 323.28 41.91 316.32 41.89 C 316.32 39.13 316.32 36.37 316.35 33.62 C 324.32 33.58 332.30 33.78 340.27 33.50 C 340.16 27.97 340.23 22.44 340.21 16.91 C 325.22 16.88 310.22 16.89 295.23 16.90 M 414.68 16.90 C 414.67 39.27 414.68 61.63 414.68 84.00 C 421.71 84.00 428.74 84.01 435.77 83.99 C 435.77 75.29 435.76 66.59 435.77 57.89 C 442.44 57.88 449.11 57.88 455.79 57.90 C 455.78 66.58 455.79 75.27 455.78 83.95 C 462.81 84.05 469.85 83.99 476.88 83.99 C 476.76 61.63 477.11 39.26 476.86 16.90 C 469.84 16.89 462.81 16.88 455.79 16.91 C 455.78 24.93 455.78 32.96 455.79 40.99 C 449.11 40.99 442.44 41.04 435.76 40.95 C 435.77 32.94 435.77 24.92 435.77 16.90 C 428.74 16.89 421.71 16.89 414.68 16.90 M 483.91 16.98 C 484.34 39.31 483.98 61.66 484.14 84.00 C 491.16 83.99 498.19 84.05 505.22 83.95 C 505.24 72.75 505.15 61.54 505.27 50.33 C 512.62 61.50 520.11 72.57 527.30 83.85 C 534.41 84.17 541.54 83.94 548.67 83.99 C 548.65 61.63 548.66 39.27 548.66 16.92 C 541.61 16.87 534.56 16.90 527.51 16.90 C 527.47 28.28 527.57 39.66 527.46 51.04 C 520.01 39.68 512.70 28.23 505.22 16.89 C 498.12 16.94 491.01 16.80 483.91 16.98 M 627.68 16.90 C 627.67 39.27 627.68 61.63 627.68 84.00 C 641.53 83.97 655.37 84.06 669.22 83.95 C 669.21 78.65 669.21 73.35 669.22 68.05 C 662.40 67.93 655.58 68.07 648.76 67.95 C 648.77 50.94 648.77 33.92 648.77 16.90 C 641.74 16.89 634.71 16.89 627.68 16.90 M 810.10 16.91 C 817.84 31.83 825.44 46.83 833.22 61.73 C 833.95 63.05 834.32 64.52 834.25 66.03 C 834.25 72.02 834.21 78.00 834.23 83.99 C 841.22 83.99 848.22 84.05 855.22 83.95 C 855.37 77.09 854.89 70.20 855.43 63.37 C 863.16 47.79 871.36 32.42 879.23 16.90 C 871.47 16.89 863.71 16.90 855.95 16.89 L 855.33 17.28 C 851.81 24.96 848.61 32.79 844.79 40.32 C 841.14 32.56 837.77 24.68 834.16 16.90 C 826.14 16.90 818.12 16.88 810.10 16.91 Z" />
<path fill="#000000" opacity="1.00" d=" M 196.37 35.63 C 201.92 34.09 208.71 36.41 211.04 41.96 C 213.40 47.46 213.38 54.32 210.29 59.53 C 206.00 66.48 194.65 66.72 189.84 60.26 C 187.85 57.69 187.26 54.43 186.92 51.28 C 186.43 44.87 189.34 36.96 196.37 35.63 Z" />
<path fill="#000000" opacity="1.00" d=" M 585.29 35.29 C 590.70 34.11 597.13 36.19 599.62 41.43 C 602.23 46.94 602.25 53.87 599.30 59.26 C 594.93 66.97 582.06 67.04 577.48 59.51 C 574.94 55.49 574.87 50.47 575.49 45.91 C 576.23 40.83 580.06 36.12 585.29 35.29 Z" />
<path fill="#000000" opacity="1.00" d=" M 703.29 35.29 C 708.68 34.11 715.10 36.17 717.60 41.38 C 720.16 46.71 720.21 53.33 717.64 58.66 C 713.63 66.90 700.23 67.27 695.51 59.55 C 692.94 55.53 692.87 50.50 693.49 45.92 C 694.23 40.83 698.05 36.12 703.29 35.29 Z" />
</g>
<g id="#ffffffff">
<path fill="#ffffff" opacity="1.00" d=" M 195.52 15.67 C 205.74 14.40 216.70 17.58 224.14 24.85 C 238.04 37.52 238.21 61.79 224.70 74.80 C 212.71 87.09 191.63 88.18 178.17 77.68 C 163.42 66.89 160.49 43.93 171.41 29.46 C 176.95 21.64 186.04 16.67 195.52 15.67 M 196.37 35.63 C 189.34 36.96 186.43 44.87 186.92 51.28 C 187.26 54.43 187.85 57.69 189.84 60.26 C 194.65 66.72 206.00 66.48 210.29 59.53 C 213.38 54.32 213.40 47.46 211.04 41.96 C 208.71 36.41 201.92 34.09 196.37 35.63 Z" />
<path fill="#ffffff" opacity="1.00" d=" M 14.75 16.68 C 22.03 16.59 29.32 16.65 36.60 16.64 C 36.63 39.09 36.60 61.54 36.62 83.99 C 29.32 83.96 22.02 84.10 14.72 83.91 C 14.78 61.50 14.71 39.09 14.75 16.68 Z" />
<path fill="#ffffff" opacity="1.00" d=" M 42.75 16.68 C 50.01 16.57 57.27 16.70 64.52 16.60 C 71.19 26.60 77.60 36.77 84.23 46.80 C 85.09 48.09 85.82 49.47 86.46 50.88 C 86.29 39.47 86.43 28.06 86.39 16.64 C 93.68 16.65 100.96 16.59 108.25 16.68 C 108.28 39.09 108.22 61.50 108.28 83.91 C 100.89 84.01 93.48 84.15 86.09 83.84 C 79.19 72.51 71.13 61.89 64.54 50.38 C 64.70 61.59 64.57 72.79 64.61 84.00 C 57.31 83.96 50.01 84.10 42.72 83.91 C 42.78 61.50 42.71 39.09 42.75 16.68 Z" />
<path fill="#ffffff" opacity="1.00" d=" M 114.38 83.99 C 114.40 61.54 114.37 39.09 114.40 16.64 C 130.47 16.63 146.53 16.63 162.60 16.64 C 162.62 22.30 162.61 27.97 162.61 33.63 C 153.82 33.62 145.03 33.68 136.25 33.60 C 136.26 36.63 136.27 39.66 136.22 42.69 C 142.56 42.60 148.91 42.61 155.25 42.68 C 155.27 48.04 155.24 53.39 155.27 58.75 C 148.93 58.88 142.59 58.82 136.25 58.80 C 136.28 67.17 136.23 75.54 136.28 83.91 C 128.98 84.09 121.68 83.96 114.38 83.99 Z" />
</g>
<g id="#ee5a09ff">
<path fill="#ee5a09" opacity="1.00" d=" M 361.39 19.37 C 373.71 13.77 389.62 14.98 399.94 24.14 C 405.31 28.88 408.35 35.70 409.80 42.61 C 402.41 42.64 395.02 42.65 387.63 42.61 C 384.99 36.66 377.48 33.74 371.61 36.70 C 365.93 39.87 364.67 47.16 365.36 53.10 C 365.71 58.44 369.16 64.21 374.88 64.91 C 380.22 65.94 385.26 62.58 387.71 57.99 C 395.06 58.01 402.41 57.98 409.77 58.02 C 408.20 66.24 403.86 74.13 396.80 78.86 C 389.05 84.27 379.10 85.18 369.97 83.89 C 361.93 82.55 354.33 78.06 349.79 71.23 C 344.14 62.77 342.69 51.95 344.62 42.07 C 346.30 32.46 352.43 23.51 361.39 19.37 Z" />
<path fill="#ee5a09" opacity="1.00" d=" M 581.23 16.26 C 591.65 14.32 603.08 16.70 611.14 23.80 C 624.53 34.94 626.62 56.51 616.54 70.48 C 609.16 81.09 595.42 86.34 582.78 84.25 C 571.91 82.75 562.02 75.61 557.21 65.76 C 550.89 52.99 553.03 36.32 563.09 26.06 C 567.90 20.99 574.39 17.60 581.23 16.26 M 585.29 35.29 C 580.06 36.12 576.23 40.83 575.49 45.91 C 574.87 50.47 574.94 55.49 577.48 59.51 C 582.06 67.04 594.93 66.97 599.30 59.26 C 602.25 53.87 602.23 46.94 599.62 41.43 C 597.13 36.19 590.70 34.11 585.29 35.29 Z" />
<path fill="#ee5a09" opacity="1.00" d=" M 699.19 16.26 C 709.63 14.32 721.08 16.70 729.15 23.81 C 741.96 34.48 744.46 54.73 735.73 68.68 C 731.42 75.82 724.22 81.01 716.26 83.33 C 703.03 87.15 687.61 82.82 679.08 71.82 C 667.97 58.26 669.47 36.26 682.61 24.56 C 687.23 20.33 693.06 17.47 699.19 16.26 M 703.29 35.29 C 698.05 36.12 694.23 40.83 693.49 45.92 C 692.87 50.50 692.94 55.53 695.51 59.55 C 700.23 67.27 713.63 66.90 717.64 58.66 C 720.21 53.33 720.16 46.71 717.60 41.38 C 715.10 36.17 708.68 34.11 703.29 35.29 Z" />
<path fill="#ee5a09" opacity="1.00" d=" M 753.29 25.34 C 761.53 17.02 774.22 14.70 785.43 16.67 C 792.81 17.81 799.97 21.48 804.44 27.57 C 807.14 31.15 808.46 35.51 809.36 39.83 C 802.00 39.91 794.64 39.93 787.29 39.83 C 782.34 33.26 770.34 34.33 766.93 41.94 C 764.55 47.07 764.67 53.30 766.64 58.55 C 769.30 65.15 777.58 67.00 783.91 65.58 C 787.34 64.89 790.00 62.49 792.36 60.07 C 786.68 59.93 781.01 60.04 775.33 59.99 C 775.34 55.03 775.34 50.08 775.34 45.12 C 786.78 45.11 798.22 45.11 809.66 45.12 C 809.55 52.06 809.85 59.01 809.55 65.94 C 807.15 71.00 802.86 75.02 798.48 78.42 C 790.70 84.37 780.34 85.14 770.95 83.92 C 760.61 82.45 751.01 75.69 746.97 65.93 C 741.36 52.77 742.96 35.79 753.29 25.34 Z" />
<path fill="#ee5a09" opacity="1.00" d=" M 235.48 16.96 C 254.28 16.80 273.08 16.94 291.87 16.90 C 291.89 22.38 291.89 27.87 291.87 33.35 C 285.99 33.36 280.10 33.35 274.22 33.35 C 274.21 50.22 274.21 67.09 274.22 83.95 C 267.22 84.05 260.22 83.99 253.23 83.99 C 253.27 67.15 253.16 50.31 253.28 33.47 C 247.36 33.23 241.44 33.40 235.52 33.35 C 235.49 27.89 235.53 22.43 235.48 16.96 Z" />
<path fill="#ee5a09" opacity="1.00" d=" M 295.23 16.90 C 310.22 16.89 325.22 16.88 340.21 16.91 C 340.23 22.44 340.16 27.97 340.27 33.50 C 332.30 33.78 324.32 33.58 316.35 33.62 C 316.32 36.37 316.32 39.13 316.32 41.89 C 323.28 41.91 330.24 41.88 337.21 41.91 C 337.23 47.11 337.17 52.31 337.27 57.51 C 330.30 57.76 323.32 57.58 316.34 57.62 C 316.32 60.78 316.32 63.94 316.32 67.10 C 324.29 67.14 332.25 67.06 340.22 67.15 C 340.21 72.75 340.21 78.35 340.22 83.95 C 325.22 84.06 310.22 83.98 295.23 83.99 C 295.24 61.63 295.23 39.26 295.23 16.90 Z" />
<path fill="#ee5a09" opacity="1.00" d=" M 414.68 16.90 C 421.71 16.89 428.74 16.89 435.77 16.90 C 435.77 24.92 435.77 32.94 435.76 40.95 C 442.44 41.04 449.11 40.99 455.79 40.99 C 455.78 32.96 455.78 24.93 455.79 16.91 C 462.81 16.88 469.84 16.89 476.86 16.90 C 477.11 39.26 476.76 61.63 476.88 83.99 C 469.85 83.99 462.81 84.05 455.78 83.95 C 455.79 75.27 455.78 66.58 455.79 57.90 C 449.11 57.88 442.44 57.88 435.77 57.89 C 435.76 66.59 435.77 75.29 435.77 83.99 C 428.74 84.01 421.71 84.00 414.68 84.00 C 414.68 61.63 414.67 39.27 414.68 16.90 Z" />
<path fill="#ee5a09" opacity="1.00" d=" M 483.91 16.98 C 491.01 16.80 498.12 16.94 505.22 16.89 C 512.70 28.23 520.01 39.68 527.46 51.04 C 527.57 39.66 527.47 28.28 527.51 16.90 C 534.56 16.90 541.61 16.87 548.66 16.92 C 548.66 39.27 548.65 61.63 548.67 83.99 C 541.54 83.94 534.41 84.17 527.30 83.85 C 520.11 72.57 512.62 61.50 505.27 50.33 C 505.15 61.54 505.24 72.75 505.22 83.95 C 498.19 84.05 491.16 83.99 484.14 84.00 C 483.98 61.66 484.34 39.31 483.91 16.98 Z" />
<path fill="#ee5a09" opacity="1.00" d=" M 627.68 16.90 C 634.71 16.89 641.74 16.89 648.77 16.90 C 648.77 33.92 648.77 50.94 648.76 67.95 C 655.58 68.07 662.40 67.93 669.22 68.05 C 669.21 73.35 669.21 78.65 669.22 83.95 C 655.37 84.06 641.53 83.97 627.68 84.00 C 627.68 61.63 627.67 39.27 627.68 16.90 Z" />
<path fill="#ee5a09" opacity="1.00" d=" M 810.10 16.91 C 818.12 16.88 826.14 16.90 834.16 16.90 C 837.77 24.68 841.14 32.56 844.79 40.32 C 848.61 32.79 851.81 24.96 855.33 17.28 L 855.95 16.89 C 863.71 16.90 871.47 16.89 879.23 16.90 C 871.36 32.42 863.16 47.79 855.43 63.37 C 854.89 70.20 855.37 77.09 855.22 83.95 C 848.22 84.05 841.22 83.99 834.23 83.99 C 834.21 78.00 834.25 72.02 834.25 66.03 C 834.32 64.52 833.95 63.05 833.22 61.73 C 825.44 46.83 817.84 31.83 810.10 16.91 Z" />
</g>
</svg>
