<?xml version="1.0" encoding="UTF-8" ?>
<!DOCTYPE svg PUBLIC "-//W3C//DTD SVG 1.1//EN" "http://www.w3.org/Graphics/SVG/1.1/DTD/svg11.dtd">
<svg width="1483pt" height="146pt" viewBox="0 0 1483 146" version="1.1" xmlns="http://www.w3.org/2000/svg">
<g id="#00699bff">
<path fill="#00699b" opacity="1.00" d=" M 840.62 27.54 C 855.40 13.37 874.84 4.44 895.03 1.47 C 904.56 -0.07 914.25 0.81 923.80 1.64 C 933.41 3.30 942.90 6.10 951.62 10.51 C 954.51 12.01 958.12 13.00 961.20 11.42 C 963.97 10.11 964.19 6.74 964.94 4.14 C 967.50 4.13 970.06 4.12 972.63 4.11 C 972.57 20.37 972.57 36.63 972.63 52.89 C 968.64 52.87 964.65 52.87 960.67 52.87 C 957.78 41.42 953.31 29.75 944.45 21.55 C 936.74 13.80 925.91 9.45 914.98 9.70 C 903.45 9.25 891.39 12.71 883.36 21.35 C 874.91 30.41 871.95 43.03 870.87 55.03 C 869.27 69.64 869.63 84.43 871.84 98.96 C 873.62 109.90 878.42 120.87 887.34 127.84 C 895.81 134.83 907.38 136.04 917.97 135.38 C 929.36 135.15 940.21 130.08 948.86 122.87 C 957.48 115.61 961.81 104.26 961.76 93.13 C 965.96 93.13 970.17 93.12 974.39 93.12 C 974.03 97.43 973.84 101.79 972.75 105.99 C 969.64 118.03 961.70 128.73 951.02 135.11 C 938.99 142.31 924.81 145.76 910.81 145.17 L 916.41 146.00 L 913.65 146.00 C 906.82 144.80 899.84 144.98 893.04 143.63 C 883.97 141.88 875.04 139.26 866.71 135.25 C 850.03 127.55 834.69 115.61 825.79 99.27 C 818.92 87.33 817.40 72.71 820.71 59.43 C 824.00 47.11 831.62 36.38 840.62 27.54 Z" />
<path fill="#00699b" opacity="1.00" d=" M 1185.42 1.69 C 1196.88 -0.18 1208.69 0.35 1220.01 2.89 C 1240.05 6.87 1259.23 16.68 1273.13 31.81 C 1280.20 39.51 1285.93 48.67 1288.59 58.85 C 1291.62 71.22 1290.80 84.73 1285.22 96.28 C 1277.60 112.04 1264.18 124.42 1248.89 132.64 C 1233.34 140.96 1215.68 145.28 1198.06 145.33 C 1170.67 144.39 1142.81 133.39 1124.78 112.24 C 1114.68 100.68 1108.23 85.45 1109.43 69.92 C 1109.98 54.76 1117.59 40.71 1127.93 29.94 C 1143.11 14.26 1163.98 4.86 1185.42 1.69 M 1192.05 10.13 C 1182.82 11.18 1174.48 16.69 1169.24 24.26 C 1162.15 34.34 1160.57 46.98 1159.86 58.97 C 1159.36 72.80 1159.22 86.74 1161.27 100.46 C 1163.11 110.39 1166.65 120.66 1174.45 127.51 C 1181.79 134.44 1192.33 136.11 1202.05 136.13 C 1211.90 135.95 1222.02 132.25 1228.30 124.37 C 1235.78 115.36 1238.40 103.38 1239.29 91.97 C 1240.79 77.05 1240.44 61.96 1238.58 47.10 C 1236.95 35.27 1232.31 22.93 1222.13 15.89 C 1213.59 9.44 1202.27 9.05 1192.05 10.13 Z" />
<path fill="#00699b" opacity="1.00" d=" M 242.78 5.59 C 248.72 5.52 254.66 5.62 260.61 5.52 C 284.54 48.92 308.42 92.34 332.25 135.80 C 338.95 135.91 345.66 135.79 352.37 135.88 C 352.38 139.06 352.38 142.24 352.35 145.42 C 320.62 145.47 288.89 145.40 257.17 145.45 C 257.18 142.25 257.18 139.05 257.18 135.84 C 264.85 135.84 272.53 135.87 280.21 135.82 C 275.27 125.91 269.79 116.26 264.62 106.45 C 243.67 106.42 222.72 106.44 201.78 106.44 C 198.87 112.28 195.77 118.03 192.81 123.85 C 191.36 126.87 190.68 131.23 193.40 133.75 C 199.28 137.34 206.77 134.79 212.92 136.36 C 213.62 139.17 213.02 142.44 213.14 145.43 C 193.92 145.44 174.71 145.45 155.50 145.42 C 155.47 142.24 155.47 139.07 155.48 135.89 C 160.61 135.81 166.05 136.14 170.80 133.87 C 174.96 131.94 178.52 128.69 180.56 124.56 C 201.32 84.91 222.04 45.24 242.78 5.59 M 232.14 48.98 C 223.82 65.09 215.23 81.06 206.81 97.12 C 224.41 97.16 242.01 97.08 259.60 97.16 C 251.20 81.30 242.91 65.36 234.42 49.55 C 233.85 49.41 232.71 49.13 232.14 48.98 Z" />
<path fill="#00699b" opacity="1.00" d=" M 0.12 5.53 C 32.37 5.59 64.63 5.57 96.88 5.55 C 96.86 8.75 96.87 11.95 96.87 15.16 C 87.95 15.17 79.02 15.10 70.09 15.20 C 69.99 55.39 70.08 95.59 70.05 135.78 C 80.43 135.91 90.86 135.38 101.08 133.55 C 111.83 131.40 122.48 125.85 128.15 116.12 C 133.18 108.36 133.42 98.79 133.24 89.86 C 137.10 89.85 140.96 89.86 144.82 89.80 C 145.25 108.35 145.11 126.93 144.89 145.48 C 96.63 145.40 48.38 145.42 0.12 145.47 C 0.13 142.25 0.13 139.04 0.13 135.84 C 8.17 135.86 16.21 135.84 24.26 135.85 C 24.25 95.61 24.25 55.38 24.25 15.15 C 16.21 15.16 8.17 15.14 0.13 15.16 C 0.13 11.95 0.13 8.74 0.12 5.53 Z" />
<path fill="#00699b" opacity="1.00" d=" M 441.43 5.57 C 464.56 5.54 487.69 5.59 510.82 5.55 C 536.66 33.11 562.16 61.00 588.13 88.41 C 588.34 67.97 588.17 47.53 588.22 27.08 C 588.60 22.72 585.80 18.56 581.72 17.09 C 575.62 14.83 568.96 15.25 562.57 15.11 C 562.56 11.93 562.56 8.76 562.58 5.58 C 582.34 5.53 602.11 5.60 621.87 5.54 C 621.86 8.75 621.87 11.95 621.87 15.15 C 615.85 15.31 609.32 14.61 603.90 17.77 C 601.03 19.48 598.44 22.47 598.64 26.01 C 598.58 65.82 598.65 105.63 598.60 145.43 C 592.08 145.44 585.57 145.43 579.07 145.44 C 545.24 109.08 511.68 72.48 477.93 36.06 C 476.79 34.77 475.51 33.63 474.11 32.64 C 473.98 62.09 474.10 91.54 474.05 120.99 C 474.01 125.61 474.70 131.40 479.36 133.67 C 485.79 136.30 492.91 135.81 499.72 135.85 C 499.73 139.05 499.73 142.24 499.72 145.44 C 480.00 145.42 460.28 145.46 440.56 145.42 C 440.53 142.24 440.53 139.07 440.55 135.89 C 446.95 135.67 454.06 136.53 459.61 132.64 C 463.58 129.78 463.83 124.46 463.86 120.01 C 463.87 90.32 463.87 60.63 463.86 30.95 C 463.97 25.31 460.34 20.13 455.30 17.79 C 451.19 15.11 446.14 15.16 441.43 15.08 C 441.41 11.91 441.41 8.74 441.43 5.57 Z" />
<path fill="#00699b" opacity="1.00" d=" M 646.27 126.07 C 667.47 85.96 688.24 45.61 709.47 5.51 C 715.39 5.62 721.31 5.53 727.23 5.58 C 751.11 49.00 774.99 92.43 798.87 135.85 C 805.50 135.84 812.13 135.84 818.76 135.86 C 818.75 139.05 818.75 142.25 818.77 145.44 C 787.09 145.42 755.42 145.45 723.75 145.42 C 723.72 142.34 723.70 139.26 723.62 136.19 C 731.28 135.42 739.00 136.07 746.69 135.82 C 741.63 125.98 736.33 116.26 731.19 106.46 C 710.25 106.41 689.30 106.44 668.35 106.45 C 665.52 111.95 662.73 117.47 659.80 122.92 C 658.37 125.66 656.94 129.10 658.57 132.08 C 659.57 134.37 662.25 134.97 664.46 135.40 C 669.56 136.15 674.73 135.76 679.86 135.84 C 679.86 139.04 679.86 142.25 679.88 145.45 C 660.63 145.43 641.37 145.41 622.12 145.47 C 622.12 142.26 622.12 139.06 622.13 135.85 C 631.09 136.67 641.38 134.35 646.27 126.07 M 698.54 49.43 C 690.31 65.31 681.86 81.08 673.68 96.99 C 691.09 97.02 708.51 96.99 725.92 97.01 C 717.41 81.07 709.12 65.02 700.57 49.11 C 700.06 49.19 699.05 49.35 698.54 49.43 Z" />
<path fill="#00699b" opacity="1.00" d=" M 995.16 5.54 C 1026.20 5.60 1057.24 5.53 1088.27 5.58 C 1088.30 8.76 1088.30 11.95 1088.29 15.13 C 1080.29 15.19 1072.30 15.11 1064.30 15.18 C 1064.25 55.39 1064.28 95.60 1064.29 135.81 C 1072.29 135.90 1080.29 135.80 1088.30 135.87 C 1088.31 139.05 1088.30 142.24 1088.27 145.42 C 1057.24 145.47 1026.20 145.40 995.17 145.45 C 995.17 142.25 995.17 139.05 995.18 135.84 C 1003.18 135.85 1011.18 135.85 1019.19 135.85 C 1019.19 95.62 1019.19 55.39 1019.19 15.15 C 1011.19 15.15 1003.18 15.15 995.18 15.16 C 995.17 11.95 995.17 8.75 995.16 5.54 Z" />
<path fill="#00699b" opacity="1.00" d=" M 1301.76 5.58 C 1324.86 5.55 1347.96 5.57 1371.06 5.57 C 1385.38 20.73 1399.48 36.10 1413.68 51.38 C 1425.39 63.67 1436.54 76.49 1448.54 88.50 C 1448.81 68.67 1448.54 48.83 1448.68 29.00 C 1448.77 25.36 1448.42 21.12 1445.18 18.83 C 1438.76 14.39 1430.46 15.37 1423.08 15.16 C 1422.92 11.96 1422.87 8.77 1422.90 5.57 C 1442.65 5.56 1462.39 5.56 1482.14 5.57 C 1481.93 8.56 1482.80 12.06 1481.73 14.73 C 1476.91 15.83 1471.55 14.61 1466.81 16.56 C 1463.05 17.84 1459.46 20.84 1458.95 24.97 C 1458.58 65.31 1459.27 105.67 1458.62 146.00 L 1444.91 146.00 C 1443.34 145.74 1440.18 145.21 1438.60 144.95 C 1415.59 119.81 1392.31 94.91 1369.30 69.76 C 1357.56 57.49 1346.48 44.59 1334.50 32.55 C 1334.27 61.37 1334.49 90.19 1334.39 119.01 C 1334.34 123.94 1334.26 130.05 1338.73 133.24 C 1345.28 136.39 1352.80 135.80 1359.87 135.83 C 1359.86 139.04 1359.86 142.25 1359.88 145.46 C 1340.29 145.42 1320.71 145.42 1301.12 145.46 C 1301.12 142.26 1301.12 139.06 1301.13 135.86 C 1307.17 135.76 1313.70 136.34 1319.15 133.20 C 1323.02 130.97 1324.16 126.17 1324.16 122.01 C 1324.19 93.67 1324.14 65.34 1324.18 37.01 C 1324.19 32.33 1324.72 27.21 1321.87 23.16 C 1317.36 16.83 1309.20 14.58 1301.75 15.07 C 1301.73 11.90 1301.73 8.74 1301.76 5.58 Z" />
</g>
<g id="#ffffffff">
</g>
</svg>
